<svg width="87" height="68" viewBox="0 0 87 68" fill="none" xmlns="http://www.w3.org/2000/svg">
<g clip-path="url(#clip0_3493_27665)">
<rect width="87" height="66" rx="7" fill="#027DE2" fill-opacity="0.1"/>
<g opacity="0.3">
<path d="M79.6653 36.1865L-0.706055 62.4764C17.867 64.998 57.7299 68.5282 68.597 62.4764C79.4642 56.4248 80.5039 42.4284 79.6653 36.1865Z" fill="url(#paint0_linear_3493_27665)"/>
<path d="M70.8592 18.4082L-0.706055 62.2627C17.7598 60.6064 56.9708 55.1959 66.0873 46.8039C75.2038 38.4118 73.0671 24.3768 70.8592 18.4082Z" fill="url(#paint1_linear_3493_27665)"/>
<path d="M56.3218 3L-1.8916 64.6333C15.6236 58.1482 52.3269 42.5313 59.018 31.9446C65.7091 21.3578 60.0085 8.23705 56.3218 3Z" fill="url(#paint2_linear_3493_27665)"/>
</g>
<g filter="url(#filter0_d_3493_27665)">
<path d="M56.5003 46.5003L50.3477 40.3477M50.3477 40.3477C51.4001 39.2953 52.235 38.0459 52.8045 36.6708C53.3741 35.2958 53.6673 33.822 53.6673 32.3336C53.6673 30.8453 53.3741 29.3715 52.8045 27.9964C52.235 26.6214 51.4001 25.372 50.3477 24.3195C49.2953 23.2671 48.0459 22.4323 46.6708 21.8627C45.2958 21.2932 43.822 21 42.3336 21C40.8453 21 39.3715 21.2932 37.9964 21.8627C36.6214 22.4323 35.372 23.2671 34.3195 24.3195C32.1941 26.445 31 29.3278 31 32.3336C31 35.3395 32.1941 38.2222 34.3195 40.3477C36.445 42.4732 39.3278 43.6673 42.3336 43.6673C45.3395 43.6673 48.2222 42.4732 50.3477 40.3477Z" stroke="#027DE2" stroke-width="2" stroke-linecap="round" stroke-linejoin="round" shape-rendering="crispEdges"/>
</g>
</g>
<defs>
<filter id="filter0_d_3493_27665" x="26" y="20" width="35.5" height="35.5002" filterUnits="userSpaceOnUse" color-interpolation-filters="sRGB">
<feFlood flood-opacity="0" result="BackgroundImageFix"/>
<feColorMatrix in="SourceAlpha" type="matrix" values="0 0 0 0 0 0 0 0 0 0 0 0 0 0 0 0 0 0 127 0" result="hardAlpha"/>
<feOffset dy="4"/>
<feGaussianBlur stdDeviation="2"/>
<feComposite in2="hardAlpha" operator="out"/>
<feColorMatrix type="matrix" values="0 0 0 0 0 0 0 0 0 0 0 0 0 0 0 0 0 0 0.25 0"/>
<feBlend mode="normal" in2="BackgroundImageFix" result="effect1_dropShadow_3493_27665"/>
<feBlend mode="normal" in="SourceGraphic" in2="effect1_dropShadow_3493_27665" result="shape"/>
</filter>
<linearGradient id="paint0_linear_3493_27665" x1="78.39" y1="46.2445" x2="3.83598" y2="62.4378" gradientUnits="userSpaceOnUse">
<stop stop-color="#964EF1"/>
<stop offset="1" stop-color="#AE1AC6" stop-opacity="0"/>
</linearGradient>
<linearGradient id="paint1_linear_3493_27665" x1="71.7275" y1="28.6275" x2="-0.411719" y2="61.363" gradientUnits="userSpaceOnUse">
<stop stop-color="#3B79F2"/>
<stop offset="1" stop-color="#80A3FF" stop-opacity="0"/>
</linearGradient>
<linearGradient id="paint2_linear_3493_27665" x1="59.3321" y1="11.8852" x2="-2.54971" y2="64.1496" gradientUnits="userSpaceOnUse">
<stop stop-color="#5AFFEB"/>
<stop offset="1" stop-color="#72CCFF" stop-opacity="0"/>
</linearGradient>
<clipPath id="clip0_3493_27665">
<rect width="87" height="68" fill="white"/>
</clipPath>
</defs>
</svg>
