<svg width="87" height="66" viewBox="0 0 87 66" fill="none" xmlns="http://www.w3.org/2000/svg">
<g clip-path="url(#clip0_3493_27667)">
<rect width="87" height="66" rx="7" fill="#075DA3"/>
<g opacity="0.3">
<path d="M80.776 36.8691L1.17383 62.9074C19.5691 65.4049 59.0505 68.9012 69.8135 62.9074C80.5767 56.9137 81.6065 43.0512 80.776 36.8691Z" fill="url(#paint0_linear_3493_27667)"/>
<path d="M72.0541 19.2607L1.17383 62.6954C19.4629 61.0551 58.2986 55.6963 67.3278 47.3846C76.3571 39.0728 74.2408 25.1722 72.0541 19.2607Z" fill="url(#paint1_linear_3493_27667)"/>
<path d="M57.6562 4L0 65.0434C17.3476 58.6204 53.6996 43.153 60.3267 32.6675C66.9537 22.1821 61.3076 9.18692 57.6562 4Z" fill="url(#paint2_linear_3493_27667)"/>
</g>
<path d="M55.97 46.0304C56.2629 46.3233 56.7377 46.3233 57.0306 46.0304C57.3235 45.7375 57.3235 45.2626 57.0306 44.9697L51.3919 39.331C52.2741 38.3318 52.986 37.1922 53.4974 35.9576C54.1047 34.4915 54.4173 32.9202 54.4173 31.3334C54.4173 29.7465 54.1047 28.1752 53.4974 26.7092C52.8902 25.2431 52.0001 23.911 50.878 22.789C49.756 21.6669 48.4239 20.7768 46.9578 20.1696C45.4918 19.5623 43.9205 19.2498 42.3336 19.2498C40.7468 19.2498 39.1755 19.5623 37.7094 20.1696C36.2434 20.7768 34.9113 21.6669 33.7892 22.789C31.5231 25.0551 30.25 28.1286 30.25 31.3334C30.25 34.5382 31.5231 37.6117 33.7892 39.8778C36.0553 42.1439 39.1288 43.417 42.3336 43.417C45.2875 43.417 48.1298 42.3355 50.3312 40.3917L55.97 46.0304Z" stroke="white" stroke-width="1.5" stroke-linecap="round" stroke-linejoin="round"/>
</g>
<defs>
<linearGradient id="paint0_linear_3493_27667" x1="79.5128" y1="46.8308" x2="5.67239" y2="62.8692" gradientUnits="userSpaceOnUse">
<stop stop-color="#964EF1"/>
<stop offset="1" stop-color="#AE1AC6" stop-opacity="0"/>
</linearGradient>
<linearGradient id="paint1_linear_3493_27667" x1="72.9141" y1="29.3823" x2="1.46535" y2="61.8044" gradientUnits="userSpaceOnUse">
<stop stop-color="#3B79F2"/>
<stop offset="1" stop-color="#80A3FF" stop-opacity="0"/>
</linearGradient>
<linearGradient id="paint2_linear_3493_27667" x1="60.6377" y1="12.8002" x2="-0.651806" y2="64.5643" gradientUnits="userSpaceOnUse">
<stop stop-color="#5AFFEB"/>
<stop offset="1" stop-color="#72CCFF" stop-opacity="0"/>
</linearGradient>
<clipPath id="clip0_3493_27667">
<rect width="87" height="66" fill="white"/>
</clipPath>
</defs>
</svg>
