<svg width="20" height="20" viewBox="0 0 20 20" fill="none" xmlns="http://www.w3.org/2000/svg">
<path d="M10 18.75C5.175 18.75 1.25 14.825 1.25 10C1.25 5.175 5.175 1.25 10 1.25C14.825 1.25 18.75 5.175 18.75 10C18.75 14.825 14.825 18.75 10 18.75ZM10 2.5C5.8625 2.5 2.5 5.8625 2.5 10C2.5 14.1375 5.8625 17.5 10 17.5C14.1375 17.5 17.5 14.1375 17.5 10C17.5 5.8625 14.1375 2.5 10 2.5Z" fill="#3B79F2"/>
<path d="M10 5.625C8.6125 5.625 7.5 6.7375 7.5 8.125H8.75C8.75 7.4375 9.3125 6.875 10 6.875C10.6875 6.875 11.25 7.4375 11.25 8.125C11.25 9.375 9.375 9.225 9.375 11.25H10.625C10.625 9.85 12.5 9.6875 12.5 8.125C12.5 6.7375 11.3875 5.625 10 5.625Z" fill="#3B79F2"/>
<path d="M9.99961 14.5251C10.4276 14.5251 10.7746 14.1781 10.7746 13.7501C10.7746 13.3221 10.4276 12.9751 9.99961 12.9751C9.57159 12.9751 9.22461 13.3221 9.22461 13.7501C9.22461 14.1781 9.57159 14.5251 9.99961 14.5251Z" fill="#3B79F2"/>
<path d="M8.125 8.75C8.47018 8.75 8.75 8.47018 8.75 8.125C8.75 7.77982 8.47018 7.5 8.125 7.5C7.77982 7.5 7.5 7.77982 7.5 8.125C7.5 8.47018 7.77982 8.75 8.125 8.75Z" fill="#3B79F2"/>
<path d="M10 11.875C10.3452 11.875 10.625 11.5952 10.625 11.25C10.625 10.9048 10.3452 10.625 10 10.625C9.65482 10.625 9.375 10.9048 9.375 11.25C9.375 11.5952 9.65482 11.875 10 11.875Z" fill="#3B79F2"/>
</svg>
